<svg xmlns="http://www.w3.org/2000/svg" viewBox="0 0 512 512">
  <defs>
    <linearGradient id="grad1" x1="0%" y1="0%" x2="100%" y2="100%">
      <stop offset="0%" style="stop-color:#6366f1;stop-opacity:1" />
      <stop offset="100%" style="stop-color:#a855f7;stop-opacity:1" />
    </linearGradient>
  </defs>
  <rect width="512" height="512" rx="100" fill="url(#grad1)" />
  <path d="M360 160c-22.1 0-40 17.9-40 40 0 4.1.6 8.1 1.8 11.8l-49.8 49.8c-3.7-1.2-7.7-1.8-11.8-1.8s-8.1.6-11.8 1.8l-49.8-49.8c1.2-3.7 1.8-7.7 1.8-11.8 0-22.1-17.9-40-40-40s-40 17.9-40 40 17.9 40 40 40c4.1 0 8.1-.6 11.8-1.8l49.8 49.8c-1.2 3.7-1.8 7.7-1.8 11.8 0 22.1 17.9 40 40 40s40-17.9 40-40c0-4.1-.6-8.1-1.8-11.8l49.8-49.8c3.7 1.2 7.7 1.8 11.8 1.8 22.1 0 40-17.9 40-40s-17.9-40-40-40z" fill="white" />
  <path d="M256 320c-35.3 0-64-28.7-64-64s28.7-64 64-64 64 28.7 64 64-28.7 64-64 64zm0-96c-17.7 0-32 14.3-32 32s14.3 32 32 32 32-14.3 32-32-14.3-32-32-32z" fill="#0a0e1a" opacity="0.2"/>
  <circle cx="256" cy="256" r="40" fill="white" />
  <path d="M256 230v52M230 256h52" stroke="#6366f1" stroke-width="8" stroke-linecap="round"/>
</svg>
